<svg width="200" height="200" xmlns="http://www.w3.org/2000/svg" stroke="null" style="vector-effect: non-scaling-stroke;" preserveAspectRatio="xMidYMid meet">
 <metadata stroke="null" style="vector-effect: non-scaling-stroke;">Created by potrace 1.13, written by Peter Selinger 2001-2015</metadata>

 <g stroke="null">
  <title stroke="null">background</title>
  <rect stroke="null" fill="none" id="canvas_background" height="202" width="202" y="-1" x="-1"/>
 </g>
 <g stroke="null">
  <title stroke="null">Layer 1</title>
  <g stroke="null" id="svg_1" fill="#000000" transform="translate(0,147.1999969482422) scale(0.07999999821186066,-0.07999999821186066) ">
   <path stroke="null" id="svg_2" d="m1069.515195,1621.891588l0,-200.108447l84.934421,0l84.934421,0l0,200.108447l0,200.108447l-84.934421,0l-84.934421,0l0,-200.108447z"/>
   <path stroke="null" id="svg_3" d="m1506.320791,1610.774452l0,-188.991311l84.934421,0l84.934421,0l0,188.991311l0,188.991311l-84.934421,0l-84.934421,0l0,-188.991311z"/>
   <path stroke="null" id="svg_4" d="m1292.771388,1572.97619c7.280093,-140.075913 7.280093,-140.075913 80.081026,-140.075913c72.800933,0 72.800933,0 80.081026,140.075913l7.280093,137.852485l-87.361119,0l-87.361119,0l7.280093,-137.852485z"/>
   <path stroke="null" id="svg_5" d="m851.112397,1499.603093c0,-73.373097 4.853396,-77.819951 84.934421,-77.819951c80.081026,0 84.934421,4.446854 84.934421,77.819951c0,73.373097 -4.853396,77.819951 -84.934421,77.819951c-80.081026,0 -84.934421,-4.446854 -84.934421,-77.819951z"/>
   <path stroke="null" id="svg_6" d="m720.070718,1379.538025l-194.13582,-13.340563l-77.654328,-160.086757l-80.081026,-160.086757l101.921306,-11.117136c55.814048,-6.670282 208.696007,-15.56399 339.737686,-17.787417l240.243078,-6.670282l82.507724,186.767883c46.107257,104.501078 82.507724,191.214738 82.507724,195.661592c0,8.893709 -254.803264,2.223427 -495.046342,-13.340563z"/>
   <path stroke="null" id="svg_7" d="m1338.878646,1286.154083c29.120373,-66.702816 65.520839,-155.639903 82.507724,-197.885019l29.120373,-77.819951l286.350335,8.893709c157.735354,4.446854 313.04401,13.340563 342.164383,22.234272l53.387351,13.340563l-80.081026,162.310184l-82.507724,160.086757l-104.348003,0c-58.240746,0 -211.122705,6.670282 -342.164383,15.56399l-237.81638,13.340563l53.387351,-120.065068z"/>
   <path stroke="null" id="svg_8" d="m1200.556874,1266.143238c-16.986884,-31.127981 -50.960653,-104.501078 -77.654328,-166.757039l-48.533955,-111.171359l-286.350335,0l-288.777033,0l-7.280093,-262.364408c-7.280093,-253.470699 -4.853396,-260.14098 48.533955,-282.375252c94.641212,-37.798262 677.048673,-182.321029 689.182162,-171.203893c4.853396,4.446854 7.280093,242.353563 4.853396,529.17567c-4.853396,413.557456 -12.133489,509.164825 -33.973769,464.696281z"/>
   <path stroke="null" id="svg_9" d="m1287.917993,779.212685c0,-482.483699 2.426698,-515.835107 43.68056,-504.717971c21.84028,6.670282 167.442145,42.245116 320.324104,82.266806c152.881959,37.798262 298.483824,80.043379 322.750801,91.160515c38.827164,17.787417 41.253862,48.915398 36.400466,280.151825l-7.280093,260.14098l-286.350335,0l-288.777033,0l-58.240746,142.29934c-33.973769,80.043379 -65.520839,148.969621 -70.374235,155.639903c-7.280093,4.446854 -12.133489,-222.342718 -12.133489,-506.941398z"/>
   <path stroke="null" id="svg_10" d="m244.437958,-43.455373c-87.361119,-20.010845 -131.041679,-48.915398 -182.002332,-120.065068c-80.081026,-115.618214 -43.68056,-373.535767 65.520839,-453.579145c92.214515,-66.702816 286.350335,-44.468544 337.310988,40.021689c24.266978,44.468544 -9.706791,62.255961 -38.827164,20.010845c-31.547071,-44.468544 -155.308656,-24.457699 -196.562518,33.351408c-84.934421,120.065068 -58.240746,384.652903 46.107257,442.462009c48.533955,28.904553 89.787817,-11.117136 89.787817,-86.71366c0,-57.809107 43.68056,-100.054223 87.361119,-84.490233c46.107257,15.56399 41.253862,104.501078 -7.280093,157.86333c-50.960653,53.362252 -118.90819,71.14967 -201.415914,51.138825z"/>
   <path stroke="null" id="svg_11" d="m690.950345,-54.572509c-82.507724,-33.351408 -106.774701,-73.373097 -106.774701,-168.980466c0,-102.27765 24.266978,-133.405631 145.601865,-188.991311c97.06791,-44.468544 145.601865,-91.160515 145.601865,-133.405631c0,-26.681126 -84.934421,-77.819951 -133.468376,-77.819951c-55.814048,0 -84.934421,37.798262 -84.934421,113.394786c0,22.234272 -16.986884,42.245116 -36.400466,42.245116c-24.266978,0 -36.400466,-24.457699 -36.400466,-77.819951c0,-71.14967 7.280093,-77.819951 99.494608,-100.054223c182.002332,-44.468544 313.04401,35.574835 313.04401,191.214738c0,62.255961 -92.214515,153.416476 -213.549402,213.44901c-80.081026,40.021689 -99.494608,100.054223 -48.533955,146.746194c55.814048,51.138825 114.054794,28.904553 152.881959,-53.362252c19.413582,-42.245116 46.107257,-73.373097 60.667444,-64.479388c33.973769,20.010845 31.547071,111.171359 -4.853396,140.075913c-55.814048,40.021689 -174.722238,48.915398 -252.376566,17.787417z"/>
   <path stroke="null" id="svg_12" d="m1394.692694,-45.6788c-29.120373,-11.117136 -60.667444,-31.127981 -70.374235,-44.468544c-12.133489,-17.787417 -26.693675,-13.340563 -46.107257,13.340563c-26.693675,31.127981 -43.68056,33.351408 -118.90819,11.117136c-82.507724,-26.681126 -123.761585,-68.926243 -65.520839,-68.926243c14.560187,0 24.266978,-93.383942 24.266978,-233.459854c0,-140.075913 -9.706791,-233.459854 -24.266978,-233.459854c-12.133489,0 -24.266978,-8.893709 -24.266978,-22.234272c0,-11.117136 63.094142,-22.234272 138.321772,-22.234272c106.774701,0 131.041679,6.670282 109.201399,26.681126c-19.413582,17.787417 -29.120373,104.501078 -29.120373,244.57699c0,195.661592 4.853396,217.895864 50.960653,240.130136c92.214515,46.691971 118.90819,-4.446854 118.90819,-240.130136c0,-175.650747 -7.280093,-215.672437 -41.253862,-240.130136c-38.827164,-26.681126 -24.266978,-28.904553 97.06791,-31.127981c75.22763,0 138.321772,8.893709 138.321772,22.234272c0,13.340563 -9.706791,22.234272 -24.266978,22.234272c-14.560187,0 -24.266978,88.937087 -24.266978,222.342718c0,217.895864 2.426698,224.566146 63.094142,249.023845c50.960653,22.234272 65.520839,20.010845 84.934421,-6.670282c29.120373,-44.468544 29.120373,-464.696281 -2.426698,-464.696281c-12.133489,0 -24.266978,-8.893709 -24.266978,-22.234272c0,-11.117136 63.094142,-22.234272 138.321772,-22.234272c106.774701,0 131.041679,6.670282 109.201399,26.681126c-16.986884,15.56399 -29.120373,93.383942 -29.120373,195.661592c0,177.874175 -29.120373,324.620369 -70.374235,362.418631c-38.827164,35.574835 -167.442145,26.681126 -218.402798,-15.56399c-46.107257,-40.021689 -50.960653,-37.798262 -114.054794,6.670282c-72.800933,51.138825 -72.800933,51.138825 -145.601865,24.457699z"/>
   <path stroke="null" id="svg_13" d="m2197.929651,-47.902227c-92.214515,-24.457699 -133.468376,-75.596524 -133.468376,-166.757039c0,-111.171359 21.84028,-140.075913 148.028563,-200.108447c101.921306,-46.691971 118.90819,-64.479388 118.90819,-120.065068c0,-51.138825 -12.133489,-68.926243 -60.667444,-80.043379c-92.214515,-20.010845 -133.468376,4.446854 -133.468376,80.043379c0,44.468544 -12.133489,66.702816 -36.400466,66.702816c-24.266978,0 -36.400466,-24.457699 -36.400466,-77.819951c0,-71.14967 7.280093,-77.819951 99.494608,-100.054223c177.148936,-44.468544 310.617313,31.127981 313.04401,173.42732c0,82.266806 -75.22763,164.533612 -213.549402,231.236427c-82.507724,40.021689 -101.921306,104.501078 -41.253862,151.193048c55.814048,42.245116 118.90819,15.56399 143.175168,-62.255961c26.693675,-88.937087 72.800933,-82.266806 82.507724,11.117136c7.280093,55.58568 -2.426698,73.373097 -48.533955,84.490233c-106.774701,28.904553 -128.614981,28.904553 -201.415914,8.893709z"/>
  </g>
 </g>
</svg>
